<mxfile host="app.diagrams.net" modified="2024-04-17T05:48:14.324Z" agent="Mozilla/5.0 (Macintosh; Intel Mac OS X 10_15_7) AppleWebKit/605.1.15 (KHTML, like Gecko) Version/17.3 Safari/605.1.15" version="24.2.5" etag="RDhYnhJ5VHN5CmLnSByq" type="github">
  <diagram name="第 1 页" id="s1b3QEASk9ITVWUATHW5">
    <mxGraphModel>
      <root>
        <mxCell id="0" />
        <mxCell id="1" parent="0" />
      </root>
    </mxGraphModel>
  </diagram>
</mxfile>
